<?xml version="1.0" encoding="UTF-8"?>
<svg xmlns="http://www.w3.org/2000/svg" xmlns:xlink="http://www.w3.org/1999/xlink" width="197pt" height="197pt" viewBox="0 0 197 197" version="1.1">
<g id="surface25557">
<path style=" stroke:none;fill-rule:evenodd;fill:rgb(58.4%,34.5%,69.8%);fill-opacity:0.75;" d="M 58 34 C 58 20.746094 47.253906 10 34 10 C 20.746094 10 10 20.746094 10 34 C 10 47.253906 20.746094 58 34 58 C 47.253906 58 58 47.253906 58 34 Z M 58 34 "/>
<path style=" stroke:none;fill-rule:evenodd;fill:rgb(25.1%,38.8%,84.7%);fill-opacity:0.75;" d="M 122 34 C 122 20.746094 111.253906 10 98 10 C 84.746094 10 74 20.746094 74 34 C 74 47.253906 84.746094 58 98 58 C 111.253906 58 122 47.253906 122 34 Z M 122 34 "/>
<path style=" stroke:none;fill-rule:evenodd;fill:rgb(22%,59.6%,14.9%);fill-opacity:0.75;" d="M 186 34 C 186 20.746094 175.253906 10 162 10 C 148.746094 10 138 20.746094 138 34 C 138 47.253906 148.746094 58 162 58 C 175.253906 58 186 47.253906 186 34 Z M 186 34 "/>
<path style=" stroke:none;fill-rule:evenodd;fill:rgb(79.6%,23.5%,20%);fill-opacity:0.75;" d="M 122 98 C 122 84.746094 111.253906 74 98 74 C 84.746094 74 74 84.746094 74 98 C 74 111.253906 84.746094 122 98 122 C 111.253906 122 122 111.253906 122 98 Z M 122 98 "/>
<path style=" stroke:none;fill-rule:evenodd;fill:rgb(25.1%,38.8%,84.7%);fill-opacity:0.75;" d="M 186 98 C 186 84.746094 175.253906 74 162 74 C 148.746094 74 138 84.746094 138 98 C 138 111.253906 148.746094 122 162 122 C 175.253906 122 186 111.253906 186 98 Z M 186 98 "/>
<path style=" stroke:none;fill-rule:evenodd;fill:rgb(58.4%,34.5%,69.8%);fill-opacity:0.75;" d="M 186 162 C 186 148.746094 175.253906 138 162 138 C 148.746094 138 138 148.746094 138 162 C 138 175.253906 148.746094 186 162 186 C 175.253906 186 186 175.253906 186 162 Z M 186 162 "/>
<path style="fill:none;stroke-width:4;stroke-linecap:butt;stroke-linejoin:round;stroke:rgb(0%,0%,0%);stroke-opacity:0.75;stroke-miterlimit:10;" d="M 136 736 L 128 736 L 128 544 L 136 544 " transform="matrix(1,0,0,-1,-126,738)"/>
<path style="fill:none;stroke-width:4;stroke-linecap:butt;stroke-linejoin:round;stroke:rgb(0%,0%,0%);stroke-opacity:0.75;stroke-miterlimit:10;" d="M 312 736 L 320 736 L 320 544 L 312 544 " transform="matrix(1,0,0,-1,-126,738)"/>
</g>
</svg>
